<svg width="183" height="45" viewBox="0 0 183 45" fill="none" xmlns="http://www.w3.org/2000/svg">
<path d="M68.731 28.7597C66.9869 28.7597 65.5089 28.0798 64.4743 26.8679C63.4101 25.6854 62.7893 23.9414 62.7893 21.7834V21.547C62.7893 19.4186 63.3214 17.6745 64.356 16.4625C65.3906 15.2801 66.8095 14.6002 68.6719 14.6002C70.5342 14.6002 71.9826 15.3097 73.0173 16.5217C73.9928 17.7336 74.5544 19.4777 74.5544 21.5174V21.7539C74.5544 23.8822 73.9632 25.6559 72.9877 26.8383C71.9531 28.0503 70.5046 28.7597 68.731 28.7597ZM68.6423 32.573C71.9531 32.573 74.6727 31.4202 76.5645 29.4987C78.4564 27.5773 79.5501 24.8577 79.5501 21.6948V21.4583C79.5501 18.2657 78.3973 15.6348 76.5054 13.743C74.584 11.8807 71.8644 10.8165 68.6719 10.8165C65.5089 10.8165 62.8189 11.9398 60.8974 13.8317C58.9169 15.7235 57.7936 18.4135 57.7936 21.5765V21.813C57.7936 24.8873 58.8578 27.6069 60.7496 29.4987C62.6119 31.4202 65.3315 32.573 68.6423 32.573ZM89.6044 29.3214C87.1508 29.3214 85.8206 27.5478 85.8206 24.5917V24.3552C85.8206 21.3992 87.2395 19.6846 89.6044 19.6846C91.9988 19.6846 93.3882 21.4583 93.3882 24.4143V24.6213C93.3882 27.5773 91.9988 29.3214 89.6044 29.3214ZM89.5748 32.573C91.9101 32.573 93.9499 31.8045 95.3984 30.4151C96.8467 29.0258 97.7336 27.0452 97.7336 24.5917V24.3552C97.7336 21.9608 96.8467 19.9803 95.4279 18.5909C93.9793 17.2016 91.9396 16.433 89.6044 16.433C87.2691 16.433 85.2294 17.2311 83.7809 18.6205C82.3325 20.0098 81.4456 22.0495 81.4456 24.4439V24.6804C81.4456 27.0748 82.3325 29.0849 83.7809 30.4151C85.2294 31.8045 87.2395 32.573 89.5748 32.573ZM100.362 9.78186V32.2479H104.649V23.3206C104.649 21.0444 106.008 19.9211 107.871 19.9211C109.763 19.9211 110.59 20.8966 110.59 23.025V32.2479H114.877V22.4042C114.877 20.3645 114.345 18.8274 113.428 17.8519C112.482 16.906 111.211 16.433 109.674 16.433C107.073 16.433 105.447 17.7041 104.649 19.2412V9.78186H100.362ZM124.098 32.573C126.374 32.573 128.266 31.2428 129.064 29.6761V32.2479H133.321V9.78186H129.064V19.0934C128.207 17.5267 126.67 16.433 124.187 16.433C122.265 16.433 120.551 17.172 119.339 18.5613C118.127 19.9507 117.388 21.9904 117.388 24.503V24.7395C117.388 27.3113 118.127 29.2623 119.339 30.5629C120.551 31.8932 122.206 32.573 124.098 32.573ZM125.369 29.2327C123.241 29.2327 121.763 27.7251 121.763 24.6508V24.4143C121.763 21.34 123.093 19.7142 125.488 19.7142C127.852 19.7142 129.183 21.2809 129.183 24.3552V24.5917C129.183 27.7547 127.616 29.2327 125.369 29.2327ZM144.034 32.573C148.291 32.573 150.921 30.7107 151.424 27.3704H147.374C147.108 28.6711 146.162 29.5283 144.152 29.5283C141.787 29.5283 140.427 28.0798 140.309 25.4785H151.453V24.2961C151.453 21.547 150.567 19.5664 149.177 18.2953C147.788 17.0242 145.926 16.433 143.916 16.433C141.669 16.433 139.688 17.2311 138.269 18.6205C136.821 20.0394 135.964 22.0199 135.964 24.4735V24.7099C135.964 27.193 136.821 29.144 138.269 30.4742C139.688 31.8636 141.699 32.573 144.034 32.573ZM147.285 22.8476H140.368C140.693 20.6306 141.994 19.389 143.916 19.389C145.955 19.389 147.138 20.4828 147.285 22.8476ZM159.776 32.573C163.885 32.573 166.279 30.829 166.279 27.4886C166.279 25.8332 165.718 24.7691 164.742 24.03C163.708 23.3206 162.2 22.9067 160.279 22.6407C158.032 22.3155 157.293 21.9312 157.293 20.9557C157.293 20.0098 158.091 19.3595 159.481 19.3595C160.988 19.3595 161.668 19.9507 161.905 21.2218H165.836C165.629 19.4482 164.89 18.2362 163.796 17.4972C162.644 16.7581 161.136 16.433 159.451 16.433C157.884 16.433 156.318 16.8173 155.224 17.6154C154.071 18.4431 153.332 19.6255 153.332 21.2514C153.332 22.7589 153.716 23.8231 154.662 24.5621C155.579 25.3011 156.997 25.7446 159.037 26.0697C161.284 26.3949 162.171 26.8383 162.171 27.9025C162.171 28.9667 161.402 29.5874 159.747 29.5874C157.855 29.5874 157.234 28.7893 157.027 27.3999H153.036C153.184 30.7403 155.608 32.573 159.776 32.573ZM168.752 9.78186V32.2479H173.038V24.9464L178.152 32.2479H183L176.94 23.8231L182.557 16.7877H178.004L173.038 23.3206V9.78186H168.752Z" fill="white"/>
<path d="M33.2556 11.0852H0V44.3408H33.2556V11.0852Z" fill="white"/>
<path opacity="0.2" d="M44.3408 0H11.0852V33.2556H44.3408V0Z" fill="white"/>
</svg>
