<svg width="191" height="57" viewBox="0 0 191 57" fill="none" xmlns="http://www.w3.org/2000/svg">
<path d="M45.8859 6.84003H11.4715V41.04H45.8859V6.84003Z" fill="white" fill-opacity="0.2"/>
<path d="M34.4144 18.24H0V52.44H34.4144V18.24Z" fill="white"/>
<path d="M80.6582 25.5953C78.3886 27.8297 75.6263 28.9469 72.3712 28.9469C69.1162 28.9469 66.3539 27.8297 64.0842 25.5953C61.8358 23.3396 60.7116 20.5838 60.7116 17.328C60.7116 14.0721 61.8358 11.327 64.0842 9.09263C66.3539 6.83697 69.1162 5.70911 72.3712 5.70911C75.6263 5.70911 78.3886 6.83697 80.6582 9.09263C82.9278 11.327 84.0629 14.0721 84.0629 17.328C84.0629 20.5838 82.9278 23.3396 80.6582 25.5953ZM67.1999 22.5948C68.5919 23.9567 70.3155 24.6377 72.3712 24.6377C74.4269 24.6377 76.1505 23.9567 77.5426 22.5948C78.9346 21.2116 79.6304 19.456 79.6304 17.328C79.6304 15.2 78.9346 13.4444 77.5426 12.0612C76.1505 10.678 74.4269 9.98639 72.3712 9.98639C70.3155 9.98639 68.5919 10.678 67.1999 12.0612C65.8078 13.4444 65.1121 15.2 65.1121 17.328C65.1121 19.456 65.8078 21.2116 67.1999 22.5948ZM100.348 26.5209C98.6988 28.1382 96.6861 28.9469 94.3093 28.9469C91.9324 28.9469 89.9191 28.1382 88.2707 26.5209C86.6429 24.8824 85.8296 22.8821 85.8296 20.52C85.8296 18.1579 86.6429 16.1682 88.2707 14.5509C89.9191 12.9124 91.9324 12.0931 94.3093 12.0931C96.6861 12.0931 98.6988 12.9124 100.348 14.5509C101.996 16.1682 102.821 18.1579 102.821 20.52C102.821 22.8821 101.996 24.8824 100.348 26.5209ZM91.1936 23.6801C92.0287 24.51 93.0669 24.9249 94.3093 24.9249C95.551 24.9249 96.5898 24.51 97.4249 23.6801C98.26 22.8501 98.6776 21.7968 98.6776 20.52C98.6776 19.2432 98.26 18.1898 97.4249 17.3599C96.5898 16.53 95.551 16.115 94.3093 16.115C93.0669 16.115 92.0287 16.53 91.1936 17.3599C90.3797 18.1898 89.973 19.2432 89.973 20.52C89.973 21.7968 90.3797 22.8501 91.1936 23.6801ZM114.344 12.0931C116.1 12.0931 117.545 12.6783 118.68 13.8487C119.837 15.0191 120.415 16.6364 120.415 18.7005V28.5H116.271V19.2113C116.271 18.1472 115.982 17.3386 115.404 16.7853C114.826 16.2108 114.055 15.9235 113.092 15.9235C112.021 15.9235 111.164 16.2534 110.522 16.913C109.879 17.5727 109.558 18.5622 109.558 19.8816V28.5H105.415V6.15599H109.558V14.3275C110.564 12.8379 112.16 12.0931 114.344 12.0931ZM135.805 6.15599H139.949V28.5H135.805V26.6167C134.584 28.1701 132.85 28.9469 130.602 28.9469C128.439 28.9469 126.587 28.1382 125.045 26.5209C123.524 24.8824 122.764 22.8821 122.764 20.52C122.764 18.1579 123.524 16.1682 125.045 14.5509C126.587 12.9124 128.439 12.0931 130.602 12.0931C132.85 12.0931 134.584 12.8698 135.805 14.4233V6.15599ZM128.16 23.7758C129.017 24.6057 130.088 25.0207 131.372 25.0207C132.657 25.0207 133.717 24.6057 134.552 23.7758C135.387 22.9246 135.805 21.8394 135.805 20.52C135.805 19.2006 135.387 18.126 134.552 17.2961C133.717 16.4449 132.657 16.0193 131.372 16.0193C130.088 16.0193 129.017 16.4449 128.16 17.2961C127.325 18.126 126.908 19.2006 126.908 20.52C126.908 21.8394 127.325 22.9246 128.16 23.7758ZM146.918 22.2117C147.474 24.212 148.984 25.2122 151.447 25.2122C153.031 25.2122 154.23 24.6802 155.044 23.6162L158.385 25.5314C156.8 27.8084 154.466 28.9469 151.383 28.9469C148.727 28.9469 146.597 28.1489 144.991 26.5529C143.385 24.9569 142.582 22.9459 142.582 20.52C142.582 18.1153 143.374 16.115 144.959 14.519C146.543 12.9018 148.577 12.0931 151.062 12.0931C153.417 12.0931 155.355 12.9018 156.875 14.519C158.417 16.1363 159.188 18.1366 159.188 20.52C159.188 21.052 159.134 21.6159 159.027 22.2117H146.918ZM146.854 19.0197H155.044C154.809 17.9345 154.316 17.1258 153.567 16.5938C152.838 16.0618 152.003 15.7958 151.062 15.7958C149.948 15.7958 149.027 16.0831 148.299 16.6577C147.571 17.211 147.089 17.9983 146.854 19.0197ZM164.954 17.0726C164.954 17.4982 165.232 17.8494 165.789 18.126C166.367 18.3813 167.063 18.6154 167.877 18.8282C168.691 19.0197 169.504 19.2751 170.318 19.5943C171.132 19.8922 171.817 20.403 172.374 21.1265C172.952 21.85 173.241 22.7544 173.241 23.8397C173.241 25.4782 172.62 26.7444 171.378 27.6381C170.157 28.5106 168.627 28.9469 166.785 28.9469C163.487 28.9469 161.239 27.6807 160.04 25.1484L163.637 23.1374C164.108 24.5206 165.158 25.2122 166.785 25.2122C168.262 25.2122 169.001 24.7547 169.001 23.8397C169.001 23.414 168.712 23.0736 168.134 22.8182C167.577 22.5416 166.892 22.2968 166.078 22.0841C165.264 21.8713 164.451 21.6053 163.637 21.2861C162.823 20.9669 162.127 20.4668 161.549 19.7858C160.992 19.0836 160.714 18.2111 160.714 17.1684C160.714 15.5936 161.292 14.3594 162.449 13.4657C163.626 12.5506 165.083 12.0931 166.817 12.0931C168.123 12.0931 169.311 12.391 170.382 12.9869C171.453 13.5614 172.299 14.3913 172.92 15.4766L169.387 17.3918C168.873 16.3065 168.016 15.7639 166.817 15.7639C166.282 15.7639 165.832 15.8809 165.468 16.115C165.126 16.3491 164.954 16.6683 164.954 17.0726ZM190.392 28.5H185.574L179.728 21.2541V28.5H175.585V6.15599H179.728V19.5624L185.253 12.54H190.199L183.743 20.4242L190.392 28.5Z" fill="white"/>
<path d="M62.7375 52.44V38.6414H68.3539C70.5123 38.6414 72.1699 39.2357 73.3268 40.4244C74.4969 41.613 75.0819 43.3184 75.0819 45.5407C75.0819 47.7629 74.4969 49.4684 73.3268 50.657C72.1699 51.8456 70.5123 52.44 68.3539 52.44H62.7375ZM65.7602 49.9206H67.9834C70.6746 49.9206 72.0202 48.4606 72.0202 45.5407C72.0202 44.1324 71.6824 43.0536 71.0061 42.3042C70.3431 41.542 69.3353 41.1608 67.9834 41.1608H65.7602V49.9206ZM87.9374 42.75H85.0512C84.9342 41.3804 84.0566 40.6957 82.4185 40.6957C81.7164 40.6957 81.1641 40.8378 80.7609 41.122C80.3708 41.3934 80.1758 41.7745 80.1758 42.2655C80.1758 42.4334 80.2022 42.582 80.2538 42.7112C80.306 42.8404 80.4035 42.9632 80.5464 43.0794C80.6898 43.1828 80.8326 43.2732 80.9754 43.3507C81.1188 43.4153 81.3264 43.4928 81.5994 43.5833C81.8857 43.6608 82.1392 43.7319 82.36 43.7965C82.594 43.8611 82.9192 43.9451 83.3351 44.0484C83.7515 44.1518 84.1151 44.2487 84.4272 44.3391C85.7923 44.7267 86.8063 45.2112 87.4694 45.7926C88.1456 46.374 88.4835 47.2074 88.4835 48.2926C88.4835 49.0808 88.3212 49.772 87.9959 50.3663C87.6713 50.9477 87.2291 51.4128 86.6698 51.7617C86.1238 52.0976 85.5192 52.3431 84.8562 52.4981C84.2063 52.6661 83.5106 52.75 82.7695 52.75C80.8848 52.75 79.409 52.3237 78.3427 51.471C77.2896 50.6053 76.7568 49.3909 76.7436 47.8275H79.7663C79.8185 49.5588 80.8653 50.4244 82.906 50.4244C83.6993 50.4244 84.3233 50.263 84.7782 49.9399C85.2462 49.604 85.4802 49.1518 85.4802 48.5834C85.4802 48.1053 85.2657 47.7565 84.8367 47.5368C84.4208 47.3172 83.537 47.0136 82.1845 46.626C81.9637 46.5743 81.7945 46.5291 81.6774 46.4903C81.2094 46.3611 80.8848 46.2707 80.7024 46.219C80.5205 46.1544 80.228 46.051 79.8248 45.9089C79.4348 45.7668 79.1491 45.6376 78.9667 45.5213C78.7849 45.405 78.5572 45.2435 78.2842 45.0368C78.0244 44.8301 77.8356 44.6169 77.7186 44.3973C77.6016 44.1647 77.4915 43.8869 77.3871 43.5639C77.2965 43.228 77.2506 42.8663 77.2506 42.4787C77.2506 41.2254 77.7381 40.2241 78.7132 39.4747C79.6883 38.7254 80.9823 38.3507 82.594 38.3507C84.1541 38.3507 85.4286 38.7189 86.4163 39.4554C87.4046 40.1789 87.9116 41.2771 87.9374 42.75ZM90.8317 38.6414H96.8186C98.3788 38.6414 99.6142 39.0161 100.524 39.7654C101.447 40.5019 101.909 41.6066 101.909 43.0794C101.909 44.5265 101.454 45.6247 100.543 46.374C99.6337 47.1105 98.4441 47.4787 96.9747 47.4787H93.8544V52.44H90.8317V38.6414ZM93.8544 41.122V45.0949H96.5651C98.1516 45.0949 98.9443 44.436 98.9443 43.1182C98.9443 41.7874 98.1579 41.122 96.5846 41.122H93.8544Z" fill="white"/>
</svg>
